<?xml version="1.0" standalone="no"?>
<!-- The icon set is based on Material Design icons by Google (https://github.com/google/material-design-icons) -->
<!DOCTYPE svg PUBLIC "-//W3C//DTD SVG 1.1//EN" "http://www.w3.org/Graphics/SVG/1.1/DTD/svg11.dtd">
<svg viewBox="0 0 48 48" version="1.1" xmlns="http://www.w3.org/2000/svg" xmlns:xlink="http://www.w3.org/1999/xlink" xml:space="preserve"
>
  <g id="album" style="display:none">
    <path d="M24 4C12.95 4 4 12.95 4 24s8.95 20 20 20 20-8.95 20-20S35.05 4 24 4zm0 29c-4.97 0-9-4.03-9-9s4.03-9 9-9 9 4.03 9 9-4.03 9-9 9zm0-11c-1.1 0-2 .9-2 2s.9 2 2 2 2-.9 2-2-.9-2-2-2z"/>
  </g>
  <g id="av_timer" style="display:none">
    <path d="M22 34c0 1.1.9 2 2 2s2-.9 2-2-.9-2-2-2-2 .9-2 2zm0-28v8h4v-3.84c6.78.97 12 6.79 12 13.84 0 7.73-6.27 14-14 14s-14-6.27-14-14c0-3.36 1.18-6.43 3.15-8.85L24 26l2.83-2.83-13.6-13.6-.02.04C8.84 12.89 6 18.11 6 24c0 9.94 8.04 18 17.99 18S42 33.94 42 24 33.94 6 23.99 6H22zm14 18c0-1.1-.9-2-2-2s-2 .9-2 2 .9 2 2 2 2-.9 2-2zm-24 0c0 1.1.9 2 2 2s2-.9 2-2-.9-2-2-2-2 .9-2 2z"/>
  </g>
  <g id="closed_caption" style="display:none">
    <path d="M38 8H10c-2.21 0-4 1.79-4 4v24c0 2.21 1.79 4 4 4h28c2.21 0 4-1.79 4-4V12c0-2.21-1.79-4-4-4zM22 22h-3v-1h-4v6h4v-1h3v2c0 1.1-.89 2-2 2h-6c-1.11 0-2-.9-2-2v-8c0-1.1.89-2 2-2h6c1.11 0 2 .9 2 2v2zm14 0h-3v-1h-4v6h4v-1h3v2c0 1.1-.89 2-2 2h-6c-1.11 0-2-.9-2-2v-8c0-1.1.89-2 2-2h6c1.11 0 2 .9 2 2v2z"/>
  </g>
  <g id="equalizer" style="display:none">
    <path d="M20 40h8V8h-8v32zM8 40h8V24H8v16zm24-22v22h8V18h-8z"/>
  </g>
  <g id="explicit" style="display:none">
    <path d="M38 6H10c-2.21 0-4 1.79-4 4v28c0 2.21 1.79 4 4 4h28c2.21 0 4-1.79 4-4V10c0-2.21-1.79-4-4-4zm-8 12h-8v4h8v4h-8v4h8v4H18V14h12v4z"/>
  </g>
  <g id="fast_forward" style="display:none">
    <path d="M8 36l17-12L8 12v24zm18-24v24l17-12-17-12z"/>
  </g>
  <g id="fast_forward" style="display:none">
    <path d="M8 36l17-12L8 12v24zm18-24v24l17-12-17-12z"/>
  </g>
  <g id="fast_rewind" style="display:none">
    <path d="M22 36V12L5 24l17 12zm1-12l17 12V12L23 24z"/>
  </g>
  <g id="pause" style="display:none">
    <path d="M12 38h8V10h-8v28zm16-28v28h8V10h-8z"/>
  </g>
  <g id="play_arrow" style="display:none">
    <path d="M16 10v28l22-14z"/>
  </g>
  <g id="stop" style="display:none">
    <path d="M12 12h24v24H12z"/>
  </g>
  <g id="ukn" style="display:none">
    
  </g>
</svg>